Coordinates
version=1
nRows=23
nColumns=30
inDegrees=yes

Units are S.I. units (second, meters, Newtons, ...)
Angles are in degrees.

endheader
time	floatyaw	floatroll	floatpitch	floatx	floaty	floatz	pro_sup_l	deviation_l	flexion_l	cmc_flexion_l	cmc_abduction_l	mp_flexion_l	ip_flexion_l	2mcp_flexion_l	2mcp_abduction_l	2pm_flexion_l	2md_flexion_l	3mcp_flexion_l	3mcp_abduction_l	3pm_flexion_l	3md_flexion_l	4mcp_flexion_l	4mcp_abduction_l	4pm_flexion_l	4md_flexion_l	5mcp_flexion_l	5mcp_abduction_l	5pm_flexion_l	5md_flexion_l
-0.495000	-160.147433	-5.066637	-73.570646	0.071328	-0.177589	-0.025933	93.807491	-0.741747	-1.308233	13.859260	-1.045135	-25.231919	-40.838817	31.747930	7.239913	41.884200	29.750427	25.971349	4.270328	43.817267	29.476982	15.182807	-4.555103	52.033537	36.577266	0.480562	-8.081114	62.350319	43.654407
-0.485000	-160.147433	-5.066637	-73.570646	0.071328	-0.177585	-0.025935	93.809873	-0.738588	-1.301553	13.867350	-1.054937	-25.240451	-40.853071	31.758393	7.238005	41.880745	29.750580	25.973730	4.272348	43.799702	29.471833	15.184647	-4.552251	52.023358	36.571326	0.472313	-8.085277	62.361430	43.668449
-0.475000	-160.147433	-5.066637	-73.570646	0.071324	-0.177587	-0.025939	93.800467	-0.742671	-1.295582	13.875100	-1.056797	-25.256766	-40.870040	31.765685	7.235335	41.882179	29.754646	25.973372	4.273148	43.791561	29.472981	15.181208	-4.551303	52.023884	36.571607	0.457771	-8.087008	62.380208	43.686464
-0.465000	-160.147433	-5.066637	-73.570646	0.071318	-0.177591	-0.025946	93.781128	-0.753603	-1.289582	13.880751	-1.047868	-25.278258	-40.886647	31.768708	7.232699	41.888798	29.761679	25.968767	4.272292	43.796240	29.481112	15.171267	-4.551286	52.035513	36.577587	0.437718	-8.086801	62.408207	43.706623
-0.455000	-160.147433	-5.066637	-73.570646	0.071309	-0.177596	-0.025957	93.759235	-0.767729	-1.282846	13.883594	-1.032979	-25.300862	-40.901007	31.767477	7.231800	41.899207	29.769390	25.959489	4.270175	43.812898	29.494635	15.156468	-4.550713	52.054692	36.586401	0.415575	-8.086793	62.445795	43.726640
-0.445000	-160.147433	-5.066637	-73.570646	0.071300	-0.177598	-0.025973	93.743482	-0.780287	-1.275578	13.884556	-1.020246	-25.321366	-40.913827	31.763980	7.234390	41.911037	29.775243	25.946635	4.267880	43.836833	29.510306	15.140604	-4.548625	52.076127	36.594624	0.396045	-8.089791	62.491311	43.744705
-0.435000	-160.147433	-5.066637	-73.570646	0.071291	-0.177596	-0.025994	93.738929	-0.788068	-1.269003	13.886254	-1.015647	-25.339309	-40.928656	31.762028	7.241163	41.921799	29.777758	25.932727	4.266519	43.861351	29.524695	15.127788	-4.545182	52.095100	36.600099	0.382797	-8.097888	62.540560	43.760306
-0.425000	-160.147433	-5.066637	-73.570646	0.071284	-0.177591	-0.026019	93.744520	-0.790915	-1.264633	13.891854	-1.019973	-25.357076	-40.950509	31.765829	7.251202	41.929655	29.777355	25.920819	4.266501	43.880933	29.536103	15.120710	-4.541439	52.108846	36.602847	0.377023	-8.111323	62.586924	43.774207
-0.415000	-160.147433	-5.066637	-73.570646	0.071277	-0.177585	-0.026046	93.754468	-0.791342	-1.263395	13.902889	-1.029237	-25.377821	-40.983023	31.778118	7.262352	41.934255	29.776401	25.913241	4.267201	43.894550	29.545973	15.120108	-4.538589	52.116835	36.604665	0.378056	-8.128085	62.622354	43.787350
-0.405000	-160.147433	-5.066637	-73.570646	0.071271	-0.177582	-0.026074	93.762236	-0.792844	-1.265216	13.917197	-1.037693	-25.402432	-41.025509	31.799004	7.272214	41.937345	29.778205	25.910834	4.267252	43.906757	29.558385	15.125523	-4.537277	52.120126	36.607642	0.385204	-8.144386	62.639352	43.799300
-0.395000	-160.147433	-5.066637	-73.570646	0.071265	-0.177581	-0.026100	93.764400	-0.798134	-1.268922	13.928497	-1.041592	-25.427703	-41.071813	31.825983	7.279098	41.942270	29.785065	25.913119	4.265205	43.924875	29.577115	15.136323	-4.537447	52.120133	36.612295	0.398646	-8.155826	62.633778	43.807562
-0.385000	-160.147433	-5.066637	-73.570646	0.071260	-0.177579	-0.026125	93.762255	-0.808231	-1.272081	13.928233	-1.041326	-25.447280	-41.112100	31.854655	7.282628	41.952022	29.796239	25.918923	4.260163	43.953607	29.601983	15.151859	-4.538666	52.117507	36.616492	0.418249	-8.158939	62.607799	43.808818
-0.375000	-160.147433	-5.066637	-73.570646	0.071254	-0.177568	-0.026154	93.760868	-0.822532	-1.270802	13.908867	-1.040314	-25.455023	-41.136800	31.879533	7.283919	41.967022	29.807446	25.926713	4.252064	43.990913	29.627416	15.170654	-4.540521	52.111926	36.616183	0.441433	-8.152672	62.571457	43.801730
-0.365000	-160.147433	-5.066637	-73.570646	0.071246	-0.177539	-0.026190	93.766751	-0.839342	-1.260068	13.866951	-1.041620	-25.448699	-41.140672	31.894862	7.285263	41.984566	29.812887	25.934506	4.241597	44.028286	29.644825	15.189608	-4.542697	52.102844	36.607812	0.462493	-8.139123	62.540732	43.789143
-0.355000	-160.147433	-5.066637	-73.570646	0.071235	-0.177484	-0.026240	93.785633	-0.856350	-1.235055	13.804545	-1.045663	-25.431785	-41.125143	31.895787	7.289174	42.000871	29.808959	25.939975	4.229869	44.055203	29.647402	15.204487	-4.544718	52.090264	36.590858	0.474700	-8.123023	62.531089	43.777211
-0.345000	-160.147433	-5.066637	-73.570646	0.071217	-0.177399	-0.026310	93.820987	-0.871039	-1.193104	13.728464	-1.051374	-25.412568	-41.098163	31.879894	7.297082	42.014648	29.797349	25.941375	4.218004	44.064904	29.634179	15.211994	-4.545640	52.074680	36.568603	0.474132	-8.109995	62.548825	43.771197
-0.335000	-160.147433	-5.066637	-73.570646	0.071190	-0.177284	-0.026410	93.873194	-0.881210	-1.135181	13.647589	-1.059690	-25.401288	-41.071780	31.848545	7.308473	42.029677	29.785217	25.939102	4.206845	44.058207	29.610812	15.212420	-4.544139	52.056348	36.546419	0.462670	-8.104375	62.585588	43.770807
-0.325000	-160.147433	-5.066637	-73.570646	0.071151	-0.177143	-0.026554	93.939116	-0.885453	-1.065506	13.569036	-1.075969	-25.406764	-41.058282	31.807178	7.321167	42.054104	29.781882	25.937009	4.196824	44.043283	29.586646	15.211221	-4.539189	52.034678	36.528613	0.448105	-8.107537	62.620954	43.768993
-0.315000	-160.147433	-5.066637	-73.570646	0.071095	-0.176977	-0.026766	94.011985	-0.882807	-0.989122	13.494382	-1.108963	-25.433911	-41.066245	31.764039	7.332637	42.096472	29.793790	25.942548	4.187966	44.031263	29.569712	15.218660	-4.530994	52.008068	36.515708	0.441413	-8.117275	62.633029	43.755817
-0.305000	-160.147433	-5.066637	-73.570646	0.071015	-0.176778	-0.027078	94.081081	-0.870967	-0.908831	13.417312	-1.166795	-25.483059	-41.097947	31.727313	7.341400	42.161320	29.821244	25.965177	4.180097	44.030011	29.562633	15.248104	-4.521433	51.973849	36.503780	0.453351	-8.128462	62.611053	43.725097
-0.295000	-160.147433	-5.066637	-73.570646	0.070894	-0.176527	-0.027530	94.130433	-0.843223	-0.823846	13.323542	-1.252843	-25.551184	-41.149030	31.701610	7.347495	42.247961	29.859539	26.013286	4.173291	44.040316	29.562307	15.314285	-4.513374	51.928256	36.486303	0.493050	-8.135025	62.562130	43.679297
-0.285000	-160.147433	-5.066637	-73.570646	0.070703	-0.176198	-0.028166	94.136903	-0.785234	-0.731558	13.193141	-1.364914	-25.634242	-41.210461	31.685752	7.351816	42.353626	29.903949	26.090962	4.168355	44.057933	29.563932	15.432073	-4.508919	51.867143	36.457523	0.569477	-8.132926	62.508214	43.629192
-0.275000	-160.147433	-5.066637	-73.570646	0.070404	-0.175765	-0.029022	94.069680	-0.673371	-0.631433	13.004837	-1.498826	-25.729424	-41.272102	31.673784	7.354814	42.478654	29.954898	26.196897	4.166805	44.080447	29.566410	15.614837	-4.507488	51.788109	36.415505	0.693802	-8.122798	62.475869	43.588273
